<?xml version="1.0" standalone="no"?>
<!DOCTYPE svg PUBLIC "-//W3C//DTD SVG 20010904//EN"
 "http://www.w3.org/TR/2001/REC-SVG-20010904/DTD/svg10.dtd">
<svg version="1.0" xmlns="http://www.w3.org/2000/svg"
 width="1159.000000pt" height="940.000000pt" viewBox="0 0 1159.000000 940.000000"
 preserveAspectRatio="xMidYMid meet">

<g transform="translate(0.000000,940.000000) scale(0.100000,-0.100000)"
fill="#000000" stroke="none">
<path d="M7374 7650 c-53 -22 -54 -30 -54 -367 0 -306 0 -313 20 -313 19 0 20
8 22 328 l3 327 23 3 22 3 0 -330 0 -331 50 0 51 0 -3 315 -3 315 -25 25 c-28
28 -74 39 -106 25z"/>
<path d="M4186 7329 c-26 -30 -26 -33 -26 -195 0 -157 1 -164 20 -164 19 0 20
7 20 174 0 142 3 176 15 186 12 10 18 10 30 0 12 -10 15 -44 15 -186 l0 -174
28 0 27 0 -4 -1100 -3 -1100 41 0 41 0 0 1100 c0 1093 0 1100 -20 1100 -19 0
-20 7 -20 166 l0 166 -29 29 c-42 42 -99 41 -135 -2z"/>
<path d="M4450 5870 l0 -1100 40 0 40 0 0 883 c0 485 -3 980 -7 1100 l-6 217
-34 0 -33 0 0 -1100z"/>
<path d="M7325 6484 c-319 -50 -553 -337 -531 -654 17 -252 181 -467 419 -550
88 -30 250 -38 336 -16 221 57 386 209 452 416 30 93 36 231 15 322 -53 221
-221 399 -436 462 -56 17 -202 28 -255 20z m106 -71 c6 -16 8 -45 6 -67 -11
-80 -50 -71 -51 11 -1 80 24 111 45 56z m-181 -35 c25 -42 36 -96 22 -110 -17
-17 -39 7 -57 63 -26 77 -3 108 35 47z m367 16 c3 -8 1 -33 -6 -54 -27 -90
-85 -109 -61 -20 20 74 53 110 67 74z m-520 -116 c28 -30 53 -69 53 -82 0 -11
-35 -6 -50 7 -28 22 -60 69 -60 88 0 28 22 23 57 -13z m687 10 c-21 -69 -104
-131 -104 -78 0 27 67 100 92 100 15 0 18 -4 12 -22z m-768 -163 c39 -30 44
-55 12 -55 -40 0 -118 55 -118 83 0 17 71 -2 106 -28z m894 21 c0 -29 -95 -84
-125 -72 -24 9 -2 42 43 65 44 24 82 27 82 7z m-922 -190 c15 -15 15 -18 2
-27 -33 -21 -160 16 -144 43 10 17 122 5 142 -16z m987 14 c13 -22 -92 -58
-129 -44 -23 9 -20 29 7 42 28 13 114 15 122 2z m-980 -180 c0 -18 -68 -42
-110 -38 -40 4 -45 33 -8 46 42 16 118 11 118 -8z m951 5 c20 -8 34 -20 32
-27 -11 -33 -148 -8 -148 26 0 21 68 21 116 1z m-901 -156 c-7 -18 -66 -56
-98 -64 -41 -11 -45 15 -6 47 54 45 119 56 104 17z m803 7 c70 -36 80 -94 11
-66 -36 15 -89 57 -89 71 0 14 48 11 78 -5z m-703 -106 c13 -22 -65 -120 -96
-120 -23 0 -6 52 29 90 39 40 56 48 67 30z m585 -16 c67 -57 76 -131 11 -84
-32 22 -61 67 -61 95 0 22 14 19 50 -11z m-453 -88 c-8 -48 -37 -106 -53 -106
-22 0 -26 18 -14 58 17 52 38 82 57 82 12 0 14 -7 10 -34z m318 -2 c25 -54 31
-104 12 -104 -20 0 -45 35 -58 83 -17 65 17 81 46 21z m-161 -27 c12 -45 -3
-112 -24 -112 -21 0 -34 72 -20 118 14 46 32 44 44 -6z"/>
<path d="M8260 5566 l0 -836 80 0 c130 0 177 14 232 71 29 30 49 60 53 81 3
18 5 337 3 710 l-3 676 -30 43 c-47 67 -90 83 -222 87 l-113 4 0 -836z"/>
<path d="M3910 4276 l0 -306 -40 0 c-34 0 -40 -3 -46 -26 -4 -14 -2 -30 4 -36
12 -12 213 -15 231 -4 17 11 13 53 -5 60 -9 3 -29 6 -45 6 l-29 0 0 80 0 80
49 0 c35 0 51 4 55 16 3 9 6 110 6 225 l0 210 -32 -3 -33 -3 -3 -157 c-2 -149
-4 -158 -22 -158 -18 0 -20 9 -22 158 l-3 157 -32 3 -33 3 0 -305z"/>
<path d="M3170 2513 c1 -119 40 -198 120 -243 l45 -25 2255 0 2255 0 42 22
c84 46 123 121 123 242 l0 61 -2420 0 -2420 0 0 -57z"/>
</g>
</svg>
