<?xml version="1.0" standalone="no"?>
<!DOCTYPE svg PUBLIC "-//W3C//DTD SVG 20010904//EN"
 "http://www.w3.org/TR/2001/REC-SVG-20010904/DTD/svg10.dtd">
<svg version="1.0" xmlns="http://www.w3.org/2000/svg"
 width="1165.000000pt" height="974.000000pt" viewBox="0 0 1165.000000 974.000000"
 preserveAspectRatio="xMidYMid meet">

<g transform="translate(0.000000,974.000000) scale(0.100000,-0.100000)"
fill="#000000" stroke="none">
<path d="M6166 9400 c-2 -8 -19 -107 -36 -220 -58 -382 -279 -1786 -370 -2353
l-38 -238 74 -452 c110 -671 182 -1109 202 -1226 l17 -104 149 574 c336 1297
379 1493 432 1956 22 190 30 676 14 856 -29 351 -102 643 -222 897 -72 151
-210 344 -222 310z"/>
<path d="M5651 5089 c-99 -30 -181 -139 -181 -240 0 -14 7 -48 15 -75 53 -177
282 -234 414 -103 19 19 42 52 52 74 22 48 25 151 5 199 -20 47 -73 104 -119
128 -47 24 -137 32 -186 17z"/>
<path d="M5392 4582 c-140 -829 -333 -1854 -359 -1895 -2 -4 -20 13 -40 38
-83 110 -267 225 -418 261 -96 24 -278 24 -365 0 -406 -111 -720 -536 -879
-1190 -49 -200 -64 -334 -58 -519 5 -189 24 -275 88 -405 130 -261 441 -435
804 -449 111 -5 143 -2 215 16 136 34 236 89 339 186 180 172 311 428 409 800
16 61 70 265 120 455 50 190 123 469 162 620 40 151 125 477 190 723 l118 449
-23 87 c-13 48 -78 296 -145 551 -67 256 -122 466 -123 467 -2 1 -17 -87 -35
-195z m-917 -1994 c141 -30 288 -146 353 -280 94 -194 106 -449 35 -753 -95
-405 -270 -650 -513 -715 -70 -19 -223 -15 -314 9 -304 80 -456 277 -456 592
0 333 148 745 343 955 164 176 339 237 552 192z"/>
<path d="M6957 2999 c-85 -9 -193 -42 -268 -79 -76 -39 -196 -136 -239 -194
l-35 -48 -11 27 -11 27 -70 -83 c-83 -100 -148 -191 -202 -283 -33 -58 -38
-72 -31 -99 262 -996 282 -1063 360 -1240 207 -465 529 -665 956 -592 295 50
524 189 647 392 46 75 92 214 108 323 19 132 6 364 -30 541 -139 674 -446
1140 -842 1274 -61 21 -218 48 -254 44 -5 -1 -41 -5 -78 -10z m274 -413 c134
-41 270 -148 369 -292 192 -277 308 -762 246 -1027 -55 -237 -246 -394 -533
-437 -181 -28 -338 24 -464 151 -110 112 -185 260 -253 495 -67 233 -84 470
-47 651 51 246 209 418 431 468 74 17 180 13 251 -9z"/>
</g>
</svg>
