<svg id="GD001" height="512" viewBox="0 0 512 512" width="512" xmlns="http://www.w3.org/2000/svg" xmlns:xlink="http://www.w3.org/1999/xlink"><linearGradient id="New_Gradient_Swatch_2" gradientUnits="userSpaceOnUse" x1="56" x2="56" y1="58.027" y2="395.7"><stop offset="0" stop-color="#fc5c7d"/><stop offset=".129" stop-color="#f35e85"/><stop offset=".343" stop-color="#d9659b"/><stop offset=".616" stop-color="#b070bf"/><stop offset=".934" stop-color="#777ff0"/><stop offset="1" stop-color="#6a82fb"/></linearGradient><linearGradient id="New_Gradient_Swatch_2-2" x1="88" x2="88" xlink:href="#New_Gradient_Swatch_2" y1="58.027" y2="395.7"/><linearGradient id="New_Gradient_Swatch_2-4" x1="256" x2="256" xlink:href="#New_Gradient_Swatch_2" y1="58.027" y2="395.7"/><path d="m48 376h16v48h-16z" fill="url(#New_Gradient_Swatch_2)"/><path d="m80 376h16v16h-16z" fill="url(#New_Gradient_Swatch_2-2)"/><path d="m80 408h16v16h-16z" fill="url(#New_Gradient_Swatch_2-2)"/><g fill="url(#New_Gradient_Swatch_2-4)"><path d="m196.46 182.055c16.033 6.413 37.178 9.945 59.54 9.945s43.507-3.532 59.54-9.945c18.353-7.341 28.46-18.014 28.46-30.055s-10.107-22.714-28.46-30.055c-16.033-6.413-37.178-9.945-59.54-9.945s-43.507 3.532-59.54 9.945c-18.353 7.341-28.46 18.014-28.46 30.055s10.107 22.714 28.46 30.055zm59.54-54.055c43.952 0 72 14.214 72 24s-28.048 24-72 24-72-14.214-72-24 28.048-24 72-24z"/><path d="m432 232h-8v-80c0-26.556-18.115-51.144-51.008-69.235-31.381-17.26-72.93-26.765-116.992-26.765s-85.611 9.5-116.992 26.765c-32.893 18.091-51.008 42.679-51.008 69.235v112c0 26.556 18.115 51.144 51.008 69.235a184.955 184.955 0 0 0 23.477 10.765h-138.485a8 8 0 0 0 -8 8v96a8 8 0 0 0 8 8h408a64.072 64.072 0 0 0 64-64v-96a64.072 64.072 0 0 0 -64-64zm-320 208h-80v-80h80zm296-208h-58.485a184.955 184.955 0 0 0 23.477-10.765c14.741-8.107 26.5-17.523 35.008-27.832zm-261.281-135.216c29.058-15.984 67.869-24.784 109.281-24.784s80.223 8.8 109.281 24.784c27.548 15.152 42.719 34.76 42.719 55.216s-15.171 40.064-42.719 55.216c-29.058 15.984-67.869 24.784-109.281 24.784s-80.223-8.8-109.281-24.784c-27.548-15.152-42.719-34.76-42.719-55.216s15.171-40.064 42.719-55.216zm0 222.432c-27.548-15.152-42.719-34.761-42.719-55.216v-70.6c8.5 10.309 20.267 19.725 35.008 27.832q6.234 3.429 12.992 6.442v36.326h16v-29.989a233.64 233.64 0 0 0 24 6.9v23.089h16v-19.9c7.823 1.307 15.841 2.291 24 2.945v48.955h16v-48.106q3.984.1 8 .106h16v16h16v-16h24v16h16v-16h24v48h16v-48h24v16h16v-16h24v16h16v-13.248a48 48 0 0 1 -16 93.248h-176c-41.412 0-80.223-8.8-109.281-24.784zm333.281 72.784a48.055 48.055 0 0 1 -48 48h-304v-80h24v16h16v-16h24v16h16v-16h24v48h16v-48h24v16h16v-16h24v16h16v-16h24v48h16v-48h24v16h16v-16h24v16h16v-18.025a64.071 64.071 0 0 0 32-19.711z"/></g></svg>