<svg id="GD001" height="512" viewBox="0 0 512 512" width="512" xmlns="http://www.w3.org/2000/svg" xmlns:xlink="http://www.w3.org/1999/xlink"><linearGradient id="New_Gradient_Swatch_2" gradientUnits="userSpaceOnUse" x1="424" x2="424" y1="48.261" y2="429.686"><stop offset="0" stop-color="#fc5c7d"/><stop offset=".129" stop-color="#f35e85"/><stop offset=".343" stop-color="#d9659b"/><stop offset=".616" stop-color="#b070bf"/><stop offset=".934" stop-color="#777ff0"/><stop offset="1" stop-color="#6a82fb"/></linearGradient><linearGradient id="New_Gradient_Swatch_2-2" x1="392" x2="392" xlink:href="#New_Gradient_Swatch_2" y1="48.261" y2="429.686"/><linearGradient id="New_Gradient_Swatch_2-3" x1="360" x2="360" xlink:href="#New_Gradient_Swatch_2" y1="48.261" y2="429.686"/><linearGradient id="New_Gradient_Swatch_2-6" x1="120" x2="120" xlink:href="#New_Gradient_Swatch_2" y1="48.261" y2="429.686"/><linearGradient id="New_Gradient_Swatch_2-7" x1="256" x2="256" xlink:href="#New_Gradient_Swatch_2" y1="48.261" y2="429.686"/><path d="m416 416h16v16h-16z" fill="url(#New_Gradient_Swatch_2)"/><path d="m360 288h64a8 8 0 0 0 8-8v-40a8 8 0 0 0 -8-8h-64a8 8 0 0 0 -8 8v40a8 8 0 0 0 8 8zm8-40h48v24h-48z" fill="url(#New_Gradient_Swatch_2-2)"/><path d="m352 304h16v16h-16z" fill="url(#New_Gradient_Swatch_2-3)"/><path d="m384 304h16v16h-16z" fill="url(#New_Gradient_Swatch_2-2)"/><path d="m416 304h16v16h-16z" fill="url(#New_Gradient_Swatch_2)"/><path d="m112 144h16v16h-16z" fill="url(#New_Gradient_Swatch_2-6)"/><path d="m472 160h-8v-24a24.027 24.027 0 0 0 -24-24h-16v-16h-16v16h-184v-16h-16v16h-16v-16a8 8 0 0 0 -2.343-5.657l-24-24-11.314 11.314 21.657 21.656v12.687h-72a24.027 24.027 0 0 0 -24 24v128a24.027 24.027 0 0 0 24 24v24a8 8 0 0 0 8 8h24v40h16v-40h24v-16h-24v-16h32a8 8 0 0 0 5.657-2.343l69.656-69.657h60.687v168h-296a8 8 0 0 0 -8 8v80a24.027 24.027 0 0 0 24 24h400a24.027 24.027 0 0 0 24-24v-216h8a24.027 24.027 0 0 0 24-24v-48a24.027 24.027 0 0 0 -24-24zm-24 176h-112v-120h112zm-240-208v116.686l-16 16v-132.686zm-112 136v-128a8.009 8.009 0 0 1 8-8h72v144h-72a8.009 8.009 0 0 1 -8-8zm40 40h-16v-16h16zm120-104a8 8 0 0 0 -5.657 2.343l-26.343 26.343v-100.686h216a8.009 8.009 0 0 1 8 8v64zm72 200a8 8 0 0 0 8-8v-40h112v96h-184v-32h-16v32h-24v-16h-16v16h-24v-16h-16v16h-24v-32h-16v32h-24v-16h-16v16h-24v-16h-16v16h-16v-48zm120 72a8.009 8.009 0 0 1 -8 8h-400a8.009 8.009 0 0 1 -8-8v-8h416zm32-240a8.009 8.009 0 0 1 -8 8h-8v-64h8a8.009 8.009 0 0 1 8 8z" fill="url(#New_Gradient_Swatch_2-7)"/></svg>